REM DIRINDEX 1\2,1\3,1\4,1\5,1\6
REM DIRNAME folder01,folder02,folder03,folder04,folder05,folder06
TITLE ""
FILE "DISC2Track33.mp3" MP3
  TRACK 01 AUDIO
    TITLE "0:"
    INDEX 01 00:00:00
  TRACK 02 AUDIO
    TITLE "3:cjc129_1969"
    INDEX 01 00:00:05
  TRACK 03 AUDIO
    TITLE "0:"
    INDEX 01 00:01:36
  TRACK 04 AUDIO
    TITLE "5:cjc129_1970"
    INDEX 01 00:01:69
  TRACK 05 AUDIO
    TITLE "0:"
    INDEX 01 00:04:11
  TRACK 06 AUDIO
    TITLE "4:cjc129_1971"
    INDEX 01 00:05:03
  TRACK 07 AUDIO
    TITLE "0:"
    INDEX 01 00:06:31
  TRACK 08 AUDIO
    TITLE "6:cjc129_1972"
    INDEX 01 00:06:67
  TRACK 09 AUDIO
    TITLE "0:"
    INDEX 01 00:11:52
  TRACK 10 AUDIO
    TITLE "3:cjc129_1973"
    INDEX 01 00:13:28
  TRACK 11 AUDIO
    TITLE "0:"
    INDEX 01 00:14:54
  TRACK 12 AUDIO
    TITLE "5:cjc129_1974"
    INDEX 01 00:15:09
  TRACK 13 AUDIO
    TITLE "0:"
    INDEX 01 00:18:15
  TRACK 14 AUDIO
    TITLE "4:cjc129_1975"
    INDEX 01 00:19:05
  TRACK 15 AUDIO
    TITLE "0:"
    INDEX 01 00:20:32
  TRACK 16 AUDIO
    TITLE "6:cjc129_1976"
    INDEX 01 00:20:63
  TRACK 17 AUDIO
    TITLE "0:"
    INDEX 01 00:25:09
  TRACK 18 AUDIO
    TITLE "3:cjc129_1977"
    INDEX 01 00:26:60
  TRACK 19 AUDIO
    TITLE "0:"
    INDEX 01 00:28:19
  TRACK 20 AUDIO
    TITLE "5:cjc129_1978"
    INDEX 01 00:28:51
  TRACK 21 AUDIO
    TITLE "0:"
    INDEX 01 00:29:74
  TRACK 22 AUDIO
    TITLE "4:cjc129_1979"
    INDEX 01 00:30:61
  TRACK 23 AUDIO
    TITLE "0:"
    INDEX 01 00:32:21
  TRACK 24 AUDIO
    TITLE "6:cjc129_1980"
    INDEX 01 00:32:52
  TRACK 25 AUDIO
    TITLE "0:"
    INDEX 01 00:36:60
  TRACK 26 AUDIO
    TITLE "3:cjc129_1981"
    INDEX 01 00:38:35
  TRACK 27 AUDIO
    TITLE "0:"
    INDEX 01 00:41:73
  TRACK 28 AUDIO
    TITLE "5:cjc129_1982"
    INDEX 01 00:42:29
  TRACK 29 AUDIO
    TITLE "0:"
    INDEX 01 00:43:72
  TRACK 30 AUDIO
    TITLE "4:cjc129_1983"
    INDEX 01 00:44:61
  TRACK 31 AUDIO
    TITLE "0:"
    INDEX 01 00:48:26
  TRACK 32 AUDIO
    TITLE "6:cjc129_1984"
    INDEX 01 00:48:55
  TRACK 33 AUDIO
    TITLE "0:"
    INDEX 01 00:53:27
  TRACK 34 AUDIO
    TITLE "3:cjc129_1985"
    INDEX 01 00:55:01
  TRACK 35 AUDIO
    TITLE "0:"
    INDEX 01 00:56:53
  TRACK 36 AUDIO
    TITLE "5:cjc129_1986"
    INDEX 01 00:57:09
  TRACK 37 AUDIO
    TITLE "0:"
    INDEX 01 00:59:39
  TRACK 38 AUDIO
    TITLE "4:cjc129_1987"
    INDEX 01 01:00:29
  TRACK 39 AUDIO
    TITLE "0:"
    INDEX 01 01:02:06
  TRACK 40 AUDIO
    TITLE "6:cjc129_1988"
    INDEX 01 01:02:38
  TRACK 41 AUDIO
    TITLE "0:"
    INDEX 01 01:08:07
  TRACK 42 AUDIO
    TITLE "3:cjc129_1989"
    INDEX 01 01:09:57
  TRACK 43 AUDIO
    TITLE "0:"
    INDEX 01 01:11:19
  TRACK 44 AUDIO
    TITLE "5:cjc129_1990"
    INDEX 01 01:11:51
  TRACK 45 AUDIO
    TITLE "0:"
    INDEX 01 01:12:71
  TRACK 46 AUDIO
    TITLE "4:cjc129_1991"
    INDEX 01 01:13:61
  TRACK 47 AUDIO
    TITLE "0:"
    INDEX 01 01:15:23
  TRACK 48 AUDIO
    TITLE "6:cjc129_1992"
    INDEX 01 01:15:54
  TRACK 49 AUDIO
    TITLE "0:"
    INDEX 01 01:21:59
  TRACK 50 AUDIO
    TITLE "3:cjc129_1993"
    INDEX 01 01:23:36
  TRACK 51 AUDIO
    TITLE "0:"
    INDEX 01 01:25:09
  TRACK 52 AUDIO
    TITLE "5:cjc129_1994"
    INDEX 01 01:25:39
  TRACK 53 AUDIO
    TITLE "0:"
    INDEX 01 01:28:20
  TRACK 54 AUDIO
    TITLE "4:cjc129_1995"
    INDEX 01 01:29:11
  TRACK 55 AUDIO
    TITLE "0:"
    INDEX 01 01:30:58
  TRACK 56 AUDIO
    TITLE "6:cjc129_1996"
    INDEX 01 01:31:14
  TRACK 57 AUDIO
    TITLE "0:"
    INDEX 01 01:35:10
  TRACK 58 AUDIO
    TITLE "3:cjc129_1997"
    INDEX 01 01:36:62
  TRACK 59 AUDIO
    TITLE "0:"
    INDEX 01 01:38:06
  TRACK 60 AUDIO
    TITLE "5:cjc129_1998"
    INDEX 01 01:38:40
  TRACK 61 AUDIO
    TITLE "0:"
    INDEX 01 01:39:39
  TRACK 62 AUDIO
    TITLE "4:cjc129_1999"
    INDEX 01 01:40:31
  TRACK 63 AUDIO
    TITLE "0:"
    INDEX 01 01:41:50
  TRACK 64 AUDIO
    TITLE "6:cjc129_2000"
    INDEX 01 01:42:08
  TRACK 65 AUDIO
    TITLE "0:"
    INDEX 01 01:47:15
  TRACK 66 AUDIO
    TITLE "3:cjc129_2001"
    INDEX 01 01:48:63
  TRACK 67 AUDIO
    TITLE "0:"
    INDEX 01 01:50:47
  TRACK 68 AUDIO
    TITLE "5:cjc129_2002"
    INDEX 01 01:51:07
  TRACK 69 AUDIO
    TITLE "0:"
    INDEX 01 01:55:09
  TRACK 70 AUDIO
    TITLE "4:cjc129_2003"
    INDEX 01 01:55:73
  TRACK 71 AUDIO
    TITLE "0:"
    INDEX 01 01:57:60
  TRACK 72 AUDIO
    TITLE "6:cjc129_2004"
    INDEX 01 01:58:19
  TRACK 73 AUDIO
    TITLE "0:"
    INDEX 01 02:02:73
